<svg xmlns="http://www.w3.org/2000/svg" xmlns:xlink="http://www.w3.org/1999/xlink" width="296" zoomAndPan="magnify" viewBox="0 0 222 354.749987" height="473" preserveAspectRatio="xMidYMid meet" version="1.0"><defs><clipPath id="56584405cf"><path d="M 130 5.714844 L 173 5.714844 L 173 160 L 130 160 Z M 130 5.714844 " clip-rule="nonzero"/></clipPath><clipPath id="f8287236fb"><path d="M 135 5.714844 L 146 5.714844 L 146 53 L 135 53 Z M 135 5.714844 " clip-rule="nonzero"/></clipPath></defs><path fill="#c6d7cf" d="M 80.777344 99.707031 C 80.777344 99.707031 74.398438 92.859375 68.734375 100.328125 C 68.734375 100.328125 63.238281 103.269531 67.023438 104.652344 C 67.023438 104.652344 79.78125 110.753906 80.777344 99.707031 Z M 80.777344 99.707031 " fill-opacity="1" fill-rule="nonzero"/><path fill="#c7c38f" d="M 81.335938 109.113281 C 81.335938 109.113281 73.984375 113.886719 73.984375 113.886719 C 73.984375 113.886719 69.425781 114.070312 68.078125 120.835938 C 68.078125 120.835938 70.082031 124.835938 77.765625 119.519531 C 77.765625 119.519531 85.84375 116.296875 81.335938 109.113281 Z M 81.335938 109.113281 " fill-opacity="1" fill-rule="nonzero"/><path fill="#cfd6bb" d="M 90.667969 132.375 C 90.667969 132.375 87.007812 131.996094 84.78125 128.972656 C 84.78125 128.972656 80.683594 125.367188 77.394531 134.097656 C 77.394531 134.097656 77.238281 141.035156 87.324219 137.554688 C 87.324219 137.554688 91.457031 135.628906 90.667969 132.375 Z M 90.667969 132.375 " fill-opacity="1" fill-rule="nonzero"/><path fill="#c7c38f" d="M 87.070312 143.132812 C 87.070312 143.132812 74.078125 147.433594 76.625 159.347656 C 76.625 159.347656 90.8125 158.550781 87.070312 143.132812 Z M 87.070312 143.132812 " fill-opacity="1" fill-rule="nonzero"/><path fill="#c6d7cf" d="M 88.914062 162.578125 C 88.914062 162.578125 78.855469 162.371094 78.257812 174.589844 C 78.257812 174.589844 91.355469 174.054688 88.914062 162.578125 Z M 88.914062 162.578125 " fill-opacity="1" fill-rule="nonzero"/><path fill="#c7c38f" d="M 91.011719 173.105469 C 91.011719 173.105469 78.96875 177.058594 82.457031 190.472656 C 82.457031 190.472656 83.261719 191.886719 84.519531 190.429688 C 84.519531 190.429688 96.15625 181.976562 91.011719 173.105469 Z M 91.011719 173.105469 " fill-opacity="1" fill-rule="nonzero"/><path fill="#79a28f" d="M 101.066406 165.722656 C 101.066406 165.722656 94.09375 174.425781 102.667969 181.316406 C 102.667969 181.316406 109.074219 172.632812 101.066406 165.722656 Z M 101.066406 165.722656 " fill-opacity="1" fill-rule="nonzero"/><path fill="#79a28f" d="M 108.828125 145.097656 C 108.828125 145.097656 105.089844 156.699219 112.335938 163.332031 C 112.335938 163.332031 114.847656 164.679688 115.234375 160.101562 C 115.234375 160.101562 117.765625 146.839844 108.828125 145.097656 Z M 108.828125 145.097656 " fill-opacity="1" fill-rule="nonzero"/><path fill="#c6d7cf" d="M 111.464844 136.527344 C 111.464844 136.527344 112.816406 144.9375 120.527344 143.527344 C 120.527344 143.527344 119.226562 135.332031 111.464844 136.527344 Z M 111.464844 136.527344 " fill-opacity="1" fill-rule="nonzero"/><path fill="#c6d7cf" d="M 120.660156 112.335938 C 120.660156 112.335938 112.910156 123.527344 120.121094 131.4375 C 120.121094 131.4375 122.386719 137.441406 124.519531 130.601562 C 124.519531 130.601562 130.695312 119.558594 120.660156 112.335938 Z M 120.660156 112.335938 " fill-opacity="1" fill-rule="nonzero"/><path fill="#cfd6bb" d="M 122.90625 105.007812 C 122.90625 105.007812 123.617188 115.988281 137.078125 114.5625 C 137.078125 114.5625 134.453125 101.863281 122.90625 105.007812 Z M 122.90625 105.007812 " fill-opacity="1" fill-rule="nonzero"/><path fill="#c6d7cf" d="M 125.457031 69.554688 C 125.457031 69.554688 112.671875 71.390625 118.46875 80.101562 C 118.46875 80.101562 127.648438 78.105469 125.457031 69.554688 Z M 125.457031 69.554688 " fill-opacity="1" fill-rule="nonzero"/><path fill="#c6d7cf" d="M 130.109375 74.980469 C 130.109375 74.980469 120 82.144531 125.972656 92.996094 C 125.972656 92.996094 137.746094 84.625 130.109375 74.980469 Z M 130.109375 74.980469 " fill-opacity="1" fill-rule="nonzero"/><path fill="#79a28f" d="M 135.992188 79.300781 C 135.992188 79.300781 131.378906 88.199219 134.832031 91.460938 C 135.0625 91.679688 135.328125 91.871094 135.632812 92.035156 C 135.632812 92.035156 138.609375 92.921875 139.828125 96.996094 C 139.828125 96.996094 141.421875 101.667969 142.546875 95.875 C 142.546875 95.875 147.832031 84.476562 135.992188 79.300781 Z M 135.992188 79.300781 " fill-opacity="1" fill-rule="nonzero"/><path fill="#809b96" d="M 125.472656 47.359375 C 125.472656 47.359375 102.878906 91.699219 88.246094 97.777344 C 88.246094 97.777344 80.074219 99.644531 80.074219 99.644531 C 80.074219 99.644531 79.707031 101.457031 79.707031 101.457031 C 79.707031 101.457031 87.042969 99.449219 87.042969 99.449219 C 87.042969 99.449219 84.304688 107.589844 80.398438 111.871094 C 80.398438 111.871094 81.117188 113.417969 81.117188 113.417969 C 81.117188 113.417969 87.488281 106.011719 87.625 101.839844 C 87.625 101.839844 88.570312 98.160156 91.613281 97.421875 C 91.613281 97.421875 104.109375 86.34375 108.5625 77.214844 C 108.5625 77.214844 104.882812 88.109375 105.488281 94.402344 C 105.488281 94.402344 104.121094 120.027344 104.121094 120.027344 C 104.121094 120.027344 99.527344 133.328125 89.257812 132.253906 C 89.257812 132.253906 89.355469 133.609375 89.355469 133.609375 C 89.355469 133.609375 96.476562 131.652344 96.476562 131.652344 C 96.476562 131.652344 85.101562 145.449219 85.101562 145.449219 C 85.101562 145.449219 85.140625 147.511719 85.140625 147.511719 C 85.140625 147.511719 98.214844 131.234375 98.214844 131.234375 C 98.214844 131.234375 104.296875 122.167969 104.296875 122.167969 C 104.296875 122.167969 104.695312 123.335938 104.695312 123.335938 C 104.695312 123.335938 98.710938 149.851562 98.710938 149.851562 C 98.710938 149.851562 97.933594 152.339844 97.933594 152.339844 C 97.933594 152.339844 87.273438 164.351562 87.273438 164.351562 C 87.273438 164.351562 88.085938 164.847656 88.085938 164.847656 C 88.085938 164.847656 96.3125 155.609375 96.3125 155.609375 C 96.3125 155.609375 94.199219 163.019531 94.199219 163.019531 C 94.199219 163.019531 94.160156 168.546875 89.125 175.285156 C 89.125 175.285156 89.898438 177.054688 89.898438 177.054688 C 89.898438 177.054688 95.539062 169.015625 95.605469 163.136719 C 95.605469 163.136719 98.214844 154.917969 98.214844 154.917969 C 98.214844 154.917969 100.832031 168.539062 100.832031 168.539062 C 100.832031 168.539062 102.292969 168.875 102.292969 168.875 C 102.292969 168.875 98.9375 152.210938 98.9375 152.210938 C 98.9375 152.210938 104.738281 128.730469 104.738281 128.730469 C 104.738281 128.730469 109.890625 148.519531 109.890625 148.519531 C 109.890625 148.519531 110.464844 147.574219 110.464844 147.574219 C 110.464844 147.574219 107.25 134.328125 107.25 134.328125 C 107.25 134.328125 115.296875 139.046875 115.296875 139.046875 C 115.296875 139.046875 115.574219 138.289062 115.574219 138.289062 C 115.574219 138.289062 106.75 131.804688 106.75 131.804688 C 106.75 131.804688 105.617188 119.089844 105.617188 119.089844 C 105.617188 119.089844 106.390625 93.839844 106.390625 93.839844 C 106.390625 93.839844 107.644531 84.796875 108.777344 81.417969 C 108.777344 81.417969 111.589844 94.417969 115.160156 100.105469 C 115.160156 100.105469 122.945312 111.324219 120.921875 117.675781 C 120.921875 117.675781 122.226562 117.359375 122.226562 117.359375 C 122.226562 117.359375 121.753906 106.898438 117.476562 102.070312 C 117.476562 102.070312 127.25 108.207031 127.25 108.207031 C 127.25 108.207031 127.9375 106.777344 127.9375 106.777344 C 127.9375 106.777344 117.386719 103.128906 115.554688 97.9375 C 115.554688 97.9375 109.011719 87.109375 110.472656 79.855469 C 110.472656 79.855469 110.867188 73.4375 110.867188 73.4375 C 110.867188 73.4375 127.289062 47.726562 127.289062 47.726562 C 127.289062 47.726562 125.472656 47.359375 125.472656 47.359375 Z M 125.472656 47.359375 " fill-opacity="1" fill-rule="nonzero"/><path fill="#809b96" d="M 125.855469 47.59375 C 125.855469 47.59375 119.410156 54.523438 124.0625 61.058594 C 124.0625 61.058594 127.792969 64.734375 126.730469 67.617188 C 126.730469 67.617188 119.484375 75.046875 119.484375 75.046875 C 119.484375 75.046875 127.703125 67.917969 127.703125 67.917969 C 127.703125 67.917969 129.917969 82.632812 129.917969 82.632812 C 129.917969 82.632812 130.296875 82.03125 130.296875 82.03125 C 130.296875 82.03125 128.296875 67.859375 128.296875 67.859375 C 128.296875 67.859375 136.644531 76.863281 136.945312 85.679688 C 136.945312 85.679688 138.351562 75.683594 129.378906 66.515625 C 120.402344 57.347656 121.039062 54.28125 127.085938 47.601562 C 127.085938 47.601562 125.855469 47.59375 125.855469 47.59375 Z M 125.855469 47.59375 " fill-opacity="1" fill-rule="nonzero"/><path fill="#c6d7cf" d="M 149.261719 132.101562 C 149.261719 132.101562 157.8125 128.300781 160.097656 137.390625 C 160.097656 137.390625 164 142.25 159.976562 142.039062 C 159.976562 142.039062 145.84375 142.65625 149.261719 132.101562 Z M 149.261719 132.101562 " fill-opacity="1" fill-rule="nonzero"/><path fill="#c7c38f" d="M 145.054688 140.535156 C 145.054688 140.535156 149.949219 147.808594 149.949219 147.808594 C 149.949219 147.808594 154.070312 149.761719 152.65625 156.515625 C 152.65625 156.515625 149.242188 159.40625 144.257812 151.511719 C 144.257812 151.511719 138.09375 145.378906 145.054688 140.535156 Z M 145.054688 140.535156 " fill-opacity="1" fill-rule="nonzero"/><path fill="#cfd6bb" d="M 127.351562 158.28125 C 127.351562 158.28125 130.863281 159.367188 134.101562 157.460938 C 134.101562 157.460938 139.285156 155.746094 138.882812 165.066406 C 138.882812 165.066406 136.308594 171.507812 128.394531 164.355469 C 128.394531 164.355469 125.34375 160.96875 127.351562 158.28125 Z M 127.351562 158.28125 " fill-opacity="1" fill-rule="nonzero"/><path fill="#c7c38f" d="M 126.441406 169.589844 C 126.441406 169.589844 136.707031 178.636719 129.6875 188.597656 C 129.6875 188.597656 116.949219 182.308594 126.441406 169.589844 Z M 126.441406 169.589844 " fill-opacity="1" fill-rule="nonzero"/><path fill="#c6d7cf" d="M 117.117188 186.753906 C 117.117188 186.753906 126.453125 190.503906 122.210938 201.980469 C 122.210938 201.980469 110.367188 196.359375 117.117188 186.753906 Z M 117.117188 186.753906 " fill-opacity="1" fill-rule="nonzero"/><path fill="#c7c38f" d="M 111.058594 195.621094 C 111.058594 195.621094 120.585938 203.972656 112.117188 214.945312 C 112.117188 214.945312 110.824219 215.933594 110.238281 214.101562 C 110.238281 214.101562 102.847656 201.765625 111.058594 195.621094 Z M 111.058594 195.621094 " fill-opacity="1" fill-rule="nonzero"/><path fill="#79a28f" d="M 104.703125 184.886719 C 104.703125 184.886719 107.707031 195.628906 97.117188 198.605469 C 97.117188 198.605469 94.628906 188.109375 104.703125 184.886719 Z M 104.703125 184.886719 " fill-opacity="1" fill-rule="nonzero"/><path fill="#79a28f" d="M 105.652344 162.875 C 105.652344 162.875 104.542969 175.011719 95.273438 178.273438 C 95.273438 178.273438 92.433594 178.527344 93.875 174.167969 C 93.875 174.167969 96.746094 160.976562 105.652344 162.875 Z M 105.652344 162.875 " fill-opacity="1" fill-rule="nonzero"/><path fill="#c6d7cf" d="M 106.589844 153.957031 C 106.589844 153.957031 102.046875 161.164062 95.507812 156.847656 C 95.507812 156.847656 99.914062 149.816406 106.589844 153.957031 Z M 106.589844 153.957031 " fill-opacity="1" fill-rule="nonzero"/><path fill="#c6d7cf" d="M 107.617188 128.097656 C 107.617188 128.097656 110.355469 141.433594 100.621094 145.882812 C 100.621094 145.882812 96.183594 150.519531 96.902344 143.390625 C 96.902344 143.390625 95.546875 130.8125 107.617188 128.097656 Z M 107.617188 128.097656 " fill-opacity="1" fill-rule="nonzero"/><path fill="#cfd6bb" d="M 108.421875 120.476562 C 108.421875 120.476562 103.460938 130.300781 91.636719 123.71875 C 91.636719 123.71875 99.035156 113.0625 108.421875 120.476562 Z M 108.421875 120.476562 " fill-opacity="1" fill-rule="nonzero"/><path fill="#c6d7cf" d="M 119.980469 86.863281 C 119.980469 86.863281 131.023438 93.558594 122.273438 99.300781 C 122.273438 99.300781 114.613281 93.871094 119.980469 86.863281 Z M 119.980469 86.863281 " fill-opacity="1" fill-rule="nonzero"/><path fill="#c6d7cf" d="M 113.574219 90.027344 C 113.574219 90.027344 120.0625 100.582031 110.3125 108.226562 C 110.3125 108.226562 102.765625 95.910156 113.574219 90.027344 Z M 113.574219 90.027344 " fill-opacity="1" fill-rule="nonzero"/><path fill="#79a28f" d="M 106.464844 91.703125 C 106.464844 91.703125 107.222656 101.695312 102.765625 103.34375 C 102.46875 103.453125 102.148438 103.527344 101.804688 103.558594 C 101.804688 103.558594 98.71875 103.207031 95.996094 106.476562 C 95.996094 106.476562 92.699219 110.152344 93.933594 104.382812 C 93.933594 104.382812 93.542969 91.824219 106.464844 91.703125 Z M 106.464844 91.703125 " fill-opacity="1" fill-rule="nonzero"/><path fill="#809b96" d="M 128.671875 66.4375 C 128.671875 66.4375 132.066406 116.078125 143.144531 127.402344 C 143.144531 127.402344 149.933594 132.324219 149.933594 132.324219 C 149.933594 132.324219 149.554688 134.132812 149.554688 134.132812 C 149.554688 134.132812 143.597656 129.410156 143.597656 129.410156 C 143.597656 129.410156 142.925781 137.972656 144.839844 143.441406 C 144.839844 143.441406 143.570312 144.585938 143.570312 144.585938 C 143.570312 144.585938 140.617188 135.273438 142.125 131.382812 C 142.125 131.382812 142.695312 127.628906 140.1875 125.757812 C 140.1875 125.757812 133.039062 110.667969 132.519531 100.527344 C 132.519531 100.527344 131.632812 111.992188 128.605469 117.542969 C 128.605469 117.542969 119.816406 141.652344 119.816406 141.652344 C 119.816406 141.652344 118.824219 155.6875 128.695312 158.722656 C 128.695312 158.722656 128.070312 159.933594 128.070312 159.933594 C 128.070312 159.933594 122.289062 155.34375 122.289062 155.34375 C 122.289062 155.34375 127.34375 172.492188 127.34375 172.492188 C 127.34375 172.492188 126.5 174.371094 126.5 174.371094 C 126.5 174.371094 120.855469 154.277344 120.855469 154.277344 C 120.855469 154.277344 118.8125 143.554688 118.8125 143.554688 C 118.8125 143.554688 117.988281 144.472656 117.988281 144.472656 C 117.988281 144.472656 113.097656 171.210938 113.097656 171.210938 C 113.097656 171.210938 112.835938 173.804688 112.835938 173.804688 C 112.835938 173.804688 117.929688 189.03125 117.929688 189.03125 C 117.929688 189.03125 116.992188 189.167969 116.992188 189.167969 C 116.992188 189.167969 113.046875 177.445312 113.046875 177.445312 C 113.046875 177.445312 112.082031 185.09375 112.082031 185.09375 C 112.082031 185.09375 109.949219 190.191406 111.9375 198.367188 C 111.9375 198.367188 110.535156 199.6875 110.535156 199.6875 C 110.535156 199.6875 108.496094 190.085938 110.742188 184.648438 C 110.742188 184.648438 111.566406 176.066406 111.566406 176.066406 C 111.566406 176.066406 103.816406 187.570312 103.816406 187.570312 C 103.816406 187.570312 102.339844 187.308594 102.339844 187.308594 C 102.339844 187.308594 111.960938 173.292969 111.960938 173.292969 C 111.960938 173.292969 115.835938 149.417969 115.835938 149.417969 C 115.835938 149.417969 103.332031 165.605469 103.332031 165.605469 C 103.332031 165.605469 103.171875 164.511719 103.171875 164.511719 C 103.171875 164.511719 111.328125 153.585938 111.328125 153.585938 C 111.328125 153.585938 102.074219 154.773438 102.074219 154.773438 C 102.074219 154.773438 102.117188 153.96875 102.117188 153.96875 C 102.117188 153.96875 112.777344 151.460938 112.777344 151.460938 C 112.777344 151.460938 118.804688 140.203125 118.804688 140.203125 C 118.804688 140.203125 128 116.671875 128 116.671875 C 128 116.671875 130.390625 107.859375 130.671875 104.308594 C 130.671875 104.308594 122.988281 115.164062 117.476562 119 C 117.476562 119 105.910156 126.273438 105.28125 132.910156 C 105.28125 132.910156 104.203125 132.109375 104.203125 132.109375 C 104.203125 132.109375 108.742188 122.667969 114.570312 119.902344 C 114.570312 119.902344 103.171875 121.722656 103.171875 121.722656 C 103.171875 121.722656 103.101562 120.136719 103.101562 120.136719 C 103.101562 120.136719 114.238281 120.910156 117.960938 116.855469 C 117.960938 116.855469 128.226562 109.453125 129.726562 102.210938 C 129.726562 102.210938 131.878906 96.148438 131.878906 96.148438 C 131.878906 96.148438 126.859375 66.0625 126.859375 66.0625 C 126.859375 66.0625 128.671875 66.4375 128.671875 66.4375 Z M 128.671875 66.4375 " fill-opacity="1" fill-rule="nonzero"/><path fill="#809b96" d="M 128.226562 66.5 C 128.226562 66.5 131.441406 75.402344 124.59375 79.589844 C 124.59375 79.589844 119.722656 81.511719 119.570312 84.578125 C 119.570312 84.578125 123.320312 94.253906 123.320312 94.253906 C 123.320312 94.253906 118.554688 84.472656 118.554688 84.472656 C 118.554688 84.472656 110.75 97.144531 110.75 97.144531 C 110.75 97.144531 110.632812 96.445312 110.632812 96.445312 C 110.632812 96.445312 118.035156 84.191406 118.035156 84.191406 C 118.035156 84.191406 106.820312 89.203125 103.085938 97.195312 C 103.085938 97.195312 105.714844 87.445312 117.566406 82.527344 C 129.417969 77.609375 130.035156 74.539062 127.09375 66.027344 C 127.09375 66.027344 128.226562 66.5 128.226562 66.5 Z M 128.226562 66.5 " fill-opacity="1" fill-rule="nonzero"/><path fill="#524351" d="M 59.503906 107.019531 C 59.503906 107.019531 65.988281 98.320312 65.988281 98.320312 C 65.988281 98.320312 74.199219 80.945312 74.199219 80.945312 C 74.199219 80.945312 79.097656 76.425781 79.097656 76.425781 C 79.097656 76.425781 77.894531 85.65625 77.894531 85.65625 C 77.894531 85.65625 77.613281 90.773438 77.613281 90.773438 C 77.613281 90.773438 77.628906 95.527344 77.628906 95.527344 C 77.628906 95.527344 79.066406 97.792969 79.066406 97.792969 C 79.066406 97.792969 78.539062 82.777344 80.152344 75.582031 C 80.152344 75.582031 89.5625 67.324219 89.5625 67.324219 C 89.5625 67.324219 79.632812 69.207031 79.632812 69.207031 C 79.632812 69.207031 85.921875 69.101562 85.921875 69.101562 C 85.921875 69.101562 71.957031 81.304688 71.957031 81.304688 C 71.957031 81.304688 68.480469 83.335938 68.480469 83.335938 C 68.480469 83.335938 60.0625 84.257812 60.0625 84.257812 C 60.0625 84.257812 60.082031 85.128906 60.082031 85.128906 C 60.082031 85.128906 65.960938 84.929688 65.960938 84.929688 C 65.960938 84.929688 71.292969 83.316406 71.292969 83.316406 C 71.292969 83.316406 67.09375 93.386719 67.09375 93.386719 C 67.09375 93.386719 58.863281 106.011719 58.863281 106.011719 C 58.863281 106.011719 59.503906 107.019531 59.503906 107.019531 Z M 59.503906 107.019531 " fill-opacity="1" fill-rule="nonzero"/><path fill="#81948b" d="M 47.964844 126.152344 C 47.964844 126.152344 42.683594 133.984375 38.601562 145.886719 C 37.351562 140.527344 33.265625 119.097656 45.203125 109.890625 C 45.203125 109.890625 66.71875 94.226562 66.71875 94.226562 C 66.71875 94.226562 66.734375 94.765625 66.777344 95.660156 C 60.710938 100.539062 52.121094 109.949219 47.964844 126.152344 Z M 47.964844 126.152344 " fill-opacity="1" fill-rule="nonzero"/><path fill="#4a6360" d="M 38.601562 145.886719 C 42.683594 133.984375 47.96875 126.15625 47.96875 126.15625 C 52.125 109.949219 60.714844 100.539062 66.777344 95.660156 C 66.957031 99.445312 67.558594 109.675781 68.96875 113.179688 C 68.96875 113.179688 70.15625 126.765625 57.144531 132.28125 C 57.144531 132.28125 42.046875 137.921875 38.910156 147.125 C 38.910156 147.125 38.785156 146.679688 38.601562 145.886719 Z M 38.601562 145.886719 " fill-opacity="1" fill-rule="nonzero"/><path fill="#4a6360" d="M 19.582031 81.316406 C 22.675781 80.886719 25.324219 77.003906 25.324219 77.003906 C 28.566406 72.222656 41.457031 70.269531 41.457031 70.269531 C 50.121094 66.074219 54.28125 74.652344 54.28125 74.652344 C 58.652344 83.679688 67.109375 82.300781 66.179688 83.613281 C 63.472656 83.832031 34.53125 86.023438 19.582031 81.316406 Z M 19.582031 81.316406 " fill-opacity="1" fill-rule="nonzero"/><path fill="#81948b" d="M 17.691406 80.585938 C 18.554688 81.035156 19.421875 81.101562 20.253906 80.933594 C 33.398438 85.535156 59.09375 84.160156 66.179688 83.671875 C 53.570312 95.367188 41.816406 93.789062 41.816406 93.789062 C 21.691406 92.777344 17.691406 80.585938 17.691406 80.585938 Z M 17.691406 80.585938 " fill-opacity="1" fill-rule="nonzero"/><path fill="#4a6360" d="M 78.804688 82.082031 C 78.804688 82.082031 78.875 82.765625 79.164062 83.863281 C 77.816406 89.242188 78.683594 97.199219 84.824219 108.921875 C 84.824219 108.921875 86.148438 117.824219 85.582031 128.660156 C 85.582031 128.660156 80.515625 118.035156 80.515625 118.035156 C 80.515625 118.035156 63.570312 108.144531 78.804688 82.082031 Z M 78.804688 82.082031 " fill-opacity="1" fill-rule="nonzero"/><path fill="#81948b" d="M 79.164062 83.859375 C 80.015625 87.074219 82.757812 93.855469 91.179688 97.449219 C 91.179688 97.449219 102.96875 107.855469 92.34375 119.582031 C 92.34375 119.582031 90.796875 129.246094 85.847656 129.214844 C 85.847656 129.214844 85.582031 128.660156 85.582031 128.660156 C 86.148438 117.824219 84.824219 108.921875 84.824219 108.921875 C 78.683594 97.199219 77.816406 89.238281 79.164062 83.859375 Z M 79.164062 83.859375 " fill-opacity="1" fill-rule="nonzero"/><path fill="#7a9080" d="M 58.828125 48.53125 C 58.828125 48.53125 67.683594 48.304688 67.683594 48.304688 C 67.683594 48.304688 76.1875 49.125 76.1875 49.125 C 76.1875 49.125 93.933594 49.90625 93.933594 49.90625 C 93.933594 49.90625 109 47.535156 109 47.535156 C 109 47.535156 104.640625 51.40625 104.640625 51.40625 C 104.640625 51.40625 100.914062 56.746094 100.914062 56.746094 C 100.914062 56.746094 100.730469 61.679688 100.730469 61.679688 C 100.730469 61.679688 103.382812 55.300781 103.382812 55.300781 C 103.382812 55.300781 106.332031 51.734375 106.332031 51.734375 C 106.332031 51.734375 111.914062 46.871094 111.914062 46.871094 C 111.914062 46.871094 124.40625 42.644531 124.40625 42.644531 C 124.40625 42.644531 138.355469 33.386719 138.355469 33.386719 C 138.355469 33.386719 146.691406 25.398438 146.691406 25.398438 C 146.691406 25.398438 148.328125 30.84375 148.328125 30.84375 C 148.328125 30.84375 148.273438 36.160156 148.273438 36.160156 C 148.273438 36.160156 149.265625 31.949219 149.265625 31.949219 C 149.265625 31.949219 147.613281 23.214844 147.613281 23.214844 C 147.613281 23.214844 155.773438 12.332031 155.773438 12.332031 C 155.773438 12.332031 157.390625 10.015625 157.390625 10.015625 C 157.390625 10.015625 158.984375 7.890625 158.984375 7.890625 C 158.984375 7.890625 157.5625 7.410156 157.5625 7.410156 C 157.5625 7.410156 149.523438 19.421875 149.523438 19.421875 C 149.523438 19.421875 146.679688 22.230469 146.679688 22.230469 C 146.679688 22.230469 133.261719 30.144531 121.769531 28.929688 C 121.769531 28.929688 122.292969 30.867188 122.292969 30.867188 C 122.292969 30.867188 139.265625 28.371094 145.882812 23.871094 C 145.882812 23.871094 137.867188 31.671875 137.867188 31.671875 C 137.867188 31.671875 124.628906 41.488281 124.628906 41.488281 C 124.628906 41.488281 113.546875 45.191406 113.546875 45.191406 C 113.546875 45.191406 96.234375 48.175781 96.234375 48.175781 C 96.234375 48.175781 85.597656 43.714844 85.597656 43.714844 C 85.597656 43.714844 81.125 40.300781 81.125 40.300781 C 81.125 40.300781 79.875 42.441406 79.875 42.441406 C 79.875 42.441406 93.757812 48.589844 93.757812 48.589844 C 93.757812 48.589844 71.398438 46.800781 71.398438 46.800781 C 71.398438 46.800781 60.265625 47.695312 60.265625 47.695312 C 60.265625 47.695312 58.828125 48.53125 58.828125 48.53125 Z M 58.828125 48.53125 " fill-opacity="1" fill-rule="nonzero"/><path fill="#c8dab9" d="M 12.378906 38.09375 C 14.628906 42.421875 20.003906 50.785156 28.929688 53.40625 C 28.929688 53.40625 32.507812 63.632812 42.546875 57.753906 C 42.546875 57.753906 60.378906 59.742188 71.949219 48.503906 C 71.949219 48.503906 71.757812 48.429688 71.421875 48.289062 C 49.699219 50.234375 25.234375 42.792969 12.378906 38.09375 Z M 12.378906 38.09375 " fill-opacity="1" fill-rule="nonzero"/><path fill="#9bae7f" d="M 71.421875 48.289062 C 68.953125 47.261719 58.503906 42.621094 56.023438 36.617188 C 56.023438 36.617188 46.207031 20.59375 29.339844 31.144531 C 29.339844 31.144531 12.792969 29.308594 11.136719 35.441406 C 11.136719 35.441406 11.546875 36.496094 12.378906 38.09375 C 25.238281 42.796875 49.699219 50.234375 71.421875 48.289062 Z M 71.421875 48.289062 " fill-opacity="1" fill-rule="nonzero"/><path fill="#9bae7f" d="M 103.574219 54.355469 C 102.527344 54.253906 101.324219 54.378906 99.945312 54.78125 C 99.945312 54.78125 77.679688 53.96875 82.886719 73.929688 C 82.886719 73.929688 83.617188 79.003906 80.453125 82.875 C 80.453125 82.875 78.519531 90.667969 86.089844 98.75 C 86.089844 98.75 86.261719 98.671875 86.558594 98.523438 C 86.570312 86.488281 88.925781 65.824219 103.574219 54.355469 Z M 103.574219 54.355469 " fill-opacity="1" fill-rule="nonzero"/><path fill="#c8dab9" d="M 103.574219 54.355469 C 88.925781 65.824219 86.570312 86.488281 86.558594 98.523438 C 89.695312 96.992188 107.703125 87.648438 105.835938 76.046875 C 105.835938 76.046875 105.386719 73.59375 108.078125 69.964844 C 110.433594 66.792969 110.894531 55.070312 103.574219 54.355469 Z M 103.574219 54.355469 " fill-opacity="1" fill-rule="nonzero"/><path fill="#c8dab9" d="M 98.023438 23.171875 C 89.480469 18.050781 83.421875 18.953125 79.714844 20.78125 C 84.191406 27.605469 105.886719 57.394531 127.8125 30.894531 C 127.8125 30.894531 128.039062 30.203125 128.082031 29.210938 C 113.609375 31.851562 98.023438 23.171875 98.023438 23.171875 Z M 98.023438 23.171875 " fill-opacity="1" fill-rule="nonzero"/><path fill="#9bae7f" d="M 97.699219 10.988281 C 97.699219 10.988281 80.640625 9.367188 78.871094 19.449219 C 78.871094 19.449219 79.164062 19.941406 79.714844 20.78125 C 83.421875 18.953125 89.480469 18.050781 98.023438 23.171875 C 98.023438 23.171875 113.609375 31.847656 128.085938 29.210938 C 128.152344 27.699219 127.792969 25.476562 125.519531 23.890625 C 125.519531 23.890625 114.929688 8.972656 97.699219 10.988281 Z M 97.699219 10.988281 " fill-opacity="1" fill-rule="nonzero"/><path fill="#9bae7f" d="M 143.261719 51.867188 C 143.261719 51.867188 144.988281 46.4375 143.71875 40.882812 C 143.71875 40.882812 144.816406 36.097656 146.679688 31.476562 C 144.917969 33.542969 141.804688 36.507812 136.96875 38.769531 C 136.96875 38.769531 128.058594 41.710938 133.058594 55.097656 C 133.058594 55.097656 135.886719 57.433594 133.722656 61.726562 C 133.722656 61.726562 134 61.777344 134.476562 61.839844 C 137.691406 59.535156 141.6875 56.003906 143.261719 51.867188 Z M 143.261719 51.867188 " fill-opacity="1" fill-rule="nonzero"/><path fill="#c8dab9" d="M 143.71875 40.882812 C 144.988281 46.4375 143.261719 51.867188 143.261719 51.867188 C 141.6875 56.003906 137.691406 59.53125 134.476562 61.839844 C 138.296875 62.363281 155.660156 63.832031 158.679688 48.042969 C 158.679688 48.042969 161.582031 35.84375 148.488281 29.003906 C 148.488281 29.003906 147.917969 30.019531 146.679688 31.476562 C 144.816406 36.097656 143.71875 40.882812 143.71875 40.882812 Z M 143.71875 40.882812 " fill-opacity="1" fill-rule="nonzero"/><path fill="#9bae7f" d="M 60.574219 14.984375 C 67.25 20.300781 69.359375 26.472656 69.359375 26.472656 C 71.277344 34.867188 78.222656 39.867188 82.382812 42.171875 C 84.527344 37.160156 78.9375 33.609375 78.9375 33.609375 C 81.117188 21.363281 71.03125 20.007812 71.03125 20.007812 C 67.550781 14.605469 63.210938 14.429688 60.574219 14.984375 Z M 60.574219 14.984375 " fill-opacity="1" fill-rule="nonzero"/><path fill="#c8dab9" d="M 58.199219 15.804688 C 62.570312 19.722656 61.046875 27.050781 61.046875 27.050781 C 62.078125 46.621094 82.03125 42.890625 82.03125 42.890625 C 82.167969 42.648438 82.28125 42.410156 82.382812 42.171875 C 78.222656 39.867188 71.277344 34.867188 69.359375 26.472656 C 69.359375 26.472656 67.25 20.304688 60.574219 14.984375 C 59.132812 15.285156 58.199219 15.804688 58.199219 15.804688 Z M 58.199219 15.804688 " fill-opacity="1" fill-rule="nonzero"/><path fill="#534351" d="M 121.664062 47.351562 C 121.664062 47.351562 108.089844 61.691406 111.578125 94.15625 C 111.578125 94.15625 107.175781 77.902344 111.273438 68.566406 C 111.273438 68.566406 96.070312 104.992188 96.070312 104.992188 C 96.070312 104.992188 105.621094 78.488281 105.621094 78.488281 C 105.621094 78.488281 121.664062 47.351562 121.664062 47.351562 Z M 121.664062 47.351562 " fill-opacity="1" fill-rule="nonzero"/><path fill="#81948b" d="M 115.835938 103.207031 C 121.441406 113.011719 121.855469 122.039062 120.464844 129.207031 C 120.054688 130.316406 119.769531 130.925781 119.769531 130.925781 C 119.191406 120.238281 113.46875 114.476562 113.46875 114.476562 C 100.359375 94.875 111.683594 68.46875 111.683594 68.46875 C 111.757812 69.042969 111.898438 69.742188 112.085938 70.535156 C 108.320312 85.726562 115.835938 103.207031 115.835938 103.207031 Z M 115.835938 103.207031 " fill-opacity="1" fill-rule="nonzero"/><path fill="#4a6360" d="M 120.464844 129.207031 C 121.855469 122.039062 121.441406 113.011719 115.835938 103.207031 C 115.835938 103.207031 108.320312 85.726562 112.085938 70.535156 C 114 78.632812 121.140625 96.78125 121.140625 96.78125 C 126.210938 111.105469 122.199219 124.558594 120.464844 129.207031 Z M 120.464844 129.207031 " fill-opacity="1" fill-rule="nonzero"/><path fill="#81948b" d="M 101.289062 141.804688 C 101.25 141.898438 101.226562 141.953125 101.226562 141.953125 C 96.089844 132.714844 91.457031 111.535156 91.457031 111.535156 C 87.777344 97.363281 105.011719 81.703125 105.011719 81.703125 C 105.011719 81.703125 105.023438 81.878906 105.023438 81.878906 C 94.148438 112.023438 96.792969 130.941406 101.289062 141.804688 Z M 101.289062 141.804688 " fill-opacity="1" fill-rule="nonzero"/><path fill="#4a6360" d="M 105.023438 81.878906 C 105.023438 81.878906 106.800781 110.5625 106.800781 110.5625 C 108.03125 124.964844 101.957031 140.179688 101.289062 141.804688 C 96.792969 130.941406 94.148438 112.023438 105.023438 81.878906 Z M 105.023438 81.878906 " fill-opacity="1" fill-rule="nonzero"/><path fill="#4a6360" d="M 112.507812 65.335938 C 112.925781 65.230469 113.167969 65.175781 113.167969 65.175781 C 102.851562 87.214844 90.890625 91.703125 90.890625 91.703125 C 84.925781 93.550781 80.953125 96.359375 79.234375 97.746094 C 82.222656 92.40625 90.363281 82.085938 112.507812 65.335938 Z M 112.507812 65.335938 " fill-opacity="1" fill-rule="nonzero"/><path fill="#81948b" d="M 112.507812 65.332031 C 90.363281 82.085938 82.222656 92.402344 79.234375 97.746094 C 78.597656 98.257812 78.261719 98.582031 78.261719 98.582031 C 79.476562 93.921875 85.648438 82.421875 85.648438 82.421875 C 89.242188 71.671875 108.6875 66.292969 112.507812 65.332031 Z M 112.507812 65.332031 " fill-opacity="1" fill-rule="nonzero"/><path fill="#534351" d="M 127.800781 186.535156 C 127.800781 186.535156 120.054688 204.695312 88.871094 214.445312 C 88.871094 214.445312 105.542969 212 112.476562 204.515625 C 112.476562 204.515625 85.117188 232.980469 85.117188 232.980469 C 85.117188 232.980469 105.625 213.65625 105.625 213.65625 C 105.625 213.65625 127.800781 186.535156 127.800781 186.535156 Z M 127.800781 186.535156 " fill-opacity="1" fill-rule="nonzero"/><path fill="#81948b" d="M 78.871094 214.152344 C 67.636719 212.925781 59.191406 216.148438 53.164062 220.28125 C 52.316406 221.101562 51.867188 221.605469 51.867188 221.605469 C 61.902344 217.871094 69.472656 220.816406 69.472656 220.816406 C 92.691406 225.011719 112.402344 204.101562 112.402344 204.101562 C 111.847656 204.261719 111.148438 204.414062 110.347656 204.558594 C 97.90625 214.070312 78.871094 214.152344 78.871094 214.152344 Z M 78.871094 214.152344 " fill-opacity="1" fill-rule="nonzero"/><path fill="#4a6360" d="M 53.164062 220.28125 C 59.1875 216.148438 67.636719 212.925781 78.871094 214.152344 C 78.871094 214.152344 97.90625 214.070312 110.347656 204.558594 C 102.152344 206.035156 82.652344 206.726562 82.652344 206.726562 C 67.484375 207.792969 56.738281 216.839844 53.164062 220.28125 Z M 53.164062 220.28125 " fill-opacity="1" fill-rule="nonzero"/><path fill="#81948b" d="M 49.253906 242.878906 C 49.183594 242.949219 49.140625 242.996094 49.140625 242.996094 C 59.667969 244.019531 80.953125 239.816406 80.953125 239.816406 C 95.425781 237.535156 102.917969 215.496094 102.917969 215.496094 C 102.917969 215.496094 102.753906 215.554688 102.753906 215.554688 C 79.429688 237.546875 61.015625 242.667969 49.253906 242.878906 Z M 49.253906 242.878906 " fill-opacity="1" fill-rule="nonzero"/><path fill="#4a6360" d="M 102.753906 215.554688 C 102.753906 215.554688 75.722656 225.367188 75.722656 225.367188 C 62.019531 229.984375 50.476562 241.617188 49.253906 242.878906 C 61.015625 242.667969 79.429688 237.546875 102.753906 215.554688 Z M 102.753906 215.554688 " fill-opacity="1" fill-rule="nonzero"/><path fill="#4a6360" d="M 114.949219 202.097656 C 114.878906 201.671875 114.832031 201.429688 114.832031 201.429688 C 98.722656 219.675781 99.375 232.425781 99.375 232.425781 C 100.058594 238.628906 99.066406 243.390625 98.480469 245.515625 C 102.1875 240.648438 108.410156 229.074219 114.949219 202.097656 Z M 114.949219 202.097656 " fill-opacity="1" fill-rule="nonzero"/><path fill="#81948b" d="M 114.949219 202.097656 C 108.410156 229.074219 102.1875 240.648438 98.480469 245.515625 C 98.261719 246.304688 98.097656 246.742188 98.097656 246.742188 C 101.890625 243.769531 109.980469 233.527344 109.980469 233.527344 C 118.414062 225.945312 115.589844 205.980469 114.949219 202.097656 Z M 114.949219 202.097656 " fill-opacity="1" fill-rule="nonzero"/><path fill="#50736c" d="M 123.664062 231.207031 C 123.664062 231.207031 141.128906 204.34375 141.128906 204.34375 C 141.128906 204.34375 138 206.472656 138 206.472656 C 138 206.472656 120.421875 234.441406 120.421875 234.441406 C 120.421875 234.441406 123.664062 231.207031 123.664062 231.207031 Z M 123.664062 231.207031 " fill-opacity="1" fill-rule="nonzero"/><path fill="#c6d7cf" d="M 103.296875 305.105469 C 103.296875 305.105469 108.011719 334.632812 86.816406 336.429688 C 86.816406 336.429688 78.914062 320.1875 90.816406 315.40625 C 90.816406 315.40625 97.335938 313.972656 103.296875 305.105469 Z M 103.296875 305.105469 " fill-opacity="1" fill-rule="nonzero"/><path fill="#c6d7cf" d="M 100.21875 299.308594 C 100.21875 299.308594 97.445312 316.101562 80.261719 311.621094 C 80.261719 311.621094 74.089844 309.742188 80.046875 304.113281 C 80.046875 304.113281 83.082031 290.140625 100.21875 299.308594 Z M 100.21875 299.308594 " fill-opacity="1" fill-rule="nonzero"/><path fill="#50736c" d="M 110.839844 290.496094 C 110.839844 290.496094 97.378906 317.558594 97.378906 317.558594 C 97.378906 317.558594 105.035156 296.808594 105.035156 296.808594 C 105.035156 296.808594 94.125 302.8125 94.125 302.8125 C 94.125 302.8125 112.019531 290.957031 110.839844 290.496094 Z M 110.839844 290.496094 " fill-opacity="1" fill-rule="nonzero"/><path fill="#d8d5b3" d="M 126.339844 257.589844 C 126.339844 257.589844 137.144531 291.890625 109.492188 305.179688 C 109.492188 305.179688 110.691406 292.6875 106.359375 286.089844 C 106.359375 286.089844 97.269531 272.628906 126.339844 257.589844 Z M 126.339844 257.589844 " fill-opacity="1" fill-rule="nonzero"/><path fill="#d8d5b3" d="M 137.433594 251.191406 C 137.433594 251.191406 146.53125 258.175781 143.082031 268.648438 C 143.082031 268.648438 146.070312 283.8125 138.6875 276.449219 C 138.6875 276.449219 125.097656 265.417969 137.433594 251.191406 Z M 137.433594 251.191406 " fill-opacity="1" fill-rule="nonzero"/><path fill="#50736c" d="M 151.140625 142.082031 C 151.140625 142.082031 147.375 160.890625 147.375 160.890625 C 147.375 160.890625 145.429688 184.695312 145.429688 184.695312 C 145.429688 184.695312 145.113281 168.582031 145.113281 168.582031 C 145.113281 168.582031 137.3125 185.40625 137.3125 185.40625 C 137.3125 185.40625 134.445312 190.355469 134.445312 190.355469 C 134.445312 190.355469 129.976562 194.574219 129.976562 194.574219 C 129.976562 194.574219 123.5625 201.382812 123.5625 201.382812 C 123.5625 201.382812 115.269531 214.359375 115.269531 214.359375 C 115.269531 214.359375 114.898438 209.40625 114.898438 209.40625 C 114.898438 209.40625 122.730469 197.609375 122.730469 197.609375 C 122.730469 197.609375 130.097656 190.234375 130.097656 190.234375 C 130.097656 190.234375 135.941406 182.472656 135.941406 182.472656 C 135.941406 182.472656 145.742188 158.375 145.742188 158.375 C 145.742188 158.375 151.140625 142.082031 151.140625 142.082031 Z M 151.140625 142.082031 " fill-opacity="1" fill-rule="nonzero"/><path fill="#50736c" d="M 142.128906 211.316406 C 142.128906 211.316406 135.269531 234.046875 135.269531 234.046875 C 135.269531 234.046875 134.078125 240.0625 134.078125 240.0625 C 134.078125 240.0625 134.792969 244.9375 134.792969 244.9375 C 134.792969 244.9375 138.285156 254.238281 138.285156 254.238281 C 138.285156 254.238281 135.71875 260.558594 135.71875 260.558594 C 135.71875 260.558594 136.039062 252.214844 136.039062 252.214844 C 136.039062 252.214844 132.699219 243.601562 132.699219 243.601562 C 132.699219 243.601562 124.546875 263.738281 124.546875 263.738281 C 124.546875 263.738281 130.296875 244.132812 130.296875 244.132812 C 130.296875 244.132812 133.742188 233.664062 133.742188 233.664062 C 133.742188 233.664062 142.128906 211.316406 142.128906 211.316406 Z M 142.128906 211.316406 " fill-opacity="1" fill-rule="nonzero"/><path fill="#79a28f" d="M 136.035156 182.433594 C 136.445312 182.128906 136.828125 181.8125 137.164062 181.480469 C 137.164062 181.480469 141.980469 219.621094 115.261719 220.832031 C 115.261719 220.832031 108.597656 223 104.753906 221.230469 C 122.132812 206.632812 131.277344 193.15625 136.035156 182.433594 Z M 136.035156 182.433594 " fill-opacity="1" fill-rule="nonzero"/><path fill="#c6d7cf" d="M 119.925781 188.160156 C 119.925781 188.160156 130.707031 186.402344 136.035156 182.433594 C 131.277344 193.160156 122.132812 206.632812 104.753906 221.230469 C 102.4375 220.164062 101.144531 217.664062 102.960938 212.394531 C 102.960938 212.394531 99.675781 192.621094 119.925781 188.160156 Z M 119.925781 188.160156 " fill-opacity="1" fill-rule="nonzero"/><path fill="#bcc497" d="M 145.046875 175.496094 C 143.792969 186.710938 143.128906 202.757812 146.601562 217.742188 C 145.523438 217.578125 144.183594 216.933594 142.523438 215.542969 C 135.179688 209.417969 124.722656 192.261719 145.046875 175.496094 Z M 145.046875 175.496094 " fill-opacity="1" fill-rule="nonzero"/><path fill="#d8d5b3" d="M 157.265625 197.550781 C 157.265625 197.550781 150.949219 212.96875 150.949219 212.96875 C 150.949219 212.96875 150.386719 218.316406 146.601562 217.742188 C 143.128906 202.757812 143.792969 186.710938 145.046875 175.496094 C 145.484375 175.136719 145.933594 174.773438 146.398438 174.414062 C 146.398438 174.414062 166.8125 185.378906 157.265625 197.550781 Z M 157.265625 197.550781 " fill-opacity="1" fill-rule="nonzero"/><path fill="#bcc497" d="M 132.015625 215.503906 C 132.226562 215.292969 132.4375 215.074219 132.648438 214.84375 C 132.648438 214.84375 134 251.949219 101.910156 250.027344 C 101.910156 250.027344 92.121094 249.113281 89.675781 246.453125 C 115.472656 239.558594 127.390625 223.75 132.015625 215.503906 Z M 132.015625 215.503906 " fill-opacity="1" fill-rule="nonzero"/><path fill="#d8d5b3" d="M 91.554688 242.242188 C 91.554688 242.242188 97.507812 215.394531 120.332031 219.355469 C 120.332031 219.355469 125.613281 221.898438 132.015625 215.503906 C 127.390625 223.75 115.472656 239.558594 89.675781 246.453125 C 88.671875 245.363281 88.902344 243.976562 91.554688 242.242188 Z M 91.554688 242.242188 " fill-opacity="1" fill-rule="nonzero"/><path fill="#4a6360" d="M 145.332031 16.707031 C 144.941406 16.859375 144.710938 16.96875 144.710938 16.96875 C 145.390625 33.71875 159.933594 29.71875 161.878906 29.105469 C 155.019531 26.820312 148.613281 20.417969 145.332031 16.707031 Z M 145.332031 16.707031 " fill-opacity="1" fill-rule="nonzero"/><path fill="#81948b" d="M 157.671875 22.5 C 155.777344 13.371094 147.640625 15.8125 145.332031 16.707031 C 148.613281 20.421875 155.023438 26.820312 161.878906 29.105469 C 162.019531 29.0625 162.097656 29.035156 162.097656 29.035156 C 156.878906 26.71875 157.671875 22.5 157.671875 22.5 Z M 157.671875 22.5 " fill-opacity="1" fill-rule="nonzero"/><path fill="#bcc497" d="M 145.703125 47.652344 C 145.703125 47.652344 152.132812 71.589844 132.214844 78.738281 C 131.949219 78.835938 131.675781 78.925781 131.398438 79.015625 C 131.398438 79.015625 126.390625 91.023438 111.117188 96.566406 C 111.117188 96.566406 113.8125 76.726562 113.8125 76.726562 C 113.8125 76.726562 115.820312 61.132812 125.667969 58.457031 C 125.667969 58.457031 140.945312 53.40625 145.703125 47.652344 Z M 145.703125 47.652344 " fill-opacity="1" fill-rule="nonzero"/><path fill="#c7c38f" d="M 137.472656 92.660156 C 137.472656 92.660156 111.960938 103.769531 119.484375 122.703125 C 119.484375 122.703125 118.6875 131.4375 124.992188 142.101562 C 124.992188 142.101562 128.484375 142.90625 127.871094 134.691406 C 127.871094 134.691406 128.632812 125.382812 133.140625 123.347656 C 133.140625 123.347656 144.632812 116.878906 141.785156 105.144531 C 141.785156 105.144531 140.261719 96.839844 137.472656 92.660156 Z M 137.472656 92.660156 " fill-opacity="1" fill-rule="nonzero"/><path fill="#c7c38f" d="M 146.605469 125.324219 C 146.605469 125.324219 140.160156 132.523438 142.234375 138.433594 C 142.234375 138.433594 143.253906 143.371094 138.222656 150.269531 C 138.222656 150.269531 135.578125 157.476562 145.039062 170.140625 C 145.039062 170.140625 148.664062 179.425781 149.523438 174.992188 C 149.523438 174.992188 156.695312 162.691406 155.84375 153.574219 C 155.84375 153.574219 158.738281 137.960938 146.605469 125.324219 Z M 146.605469 125.324219 " fill-opacity="1" fill-rule="nonzero"/><path fill="#cfd6bb" d="M 148.242188 101.394531 C 148.242188 101.394531 155.476562 123.339844 155.476562 123.339844 C 155.476562 123.339844 157.460938 130.019531 168.355469 138.433594 C 168.355469 138.433594 173.964844 145.726562 173.964844 145.726562 C 173.964844 145.726562 178.941406 152.644531 177.1875 142.957031 C 177.1875 142.957031 178.566406 109.664062 148.242188 101.394531 Z M 148.242188 101.394531 " fill-opacity="1" fill-rule="nonzero"/><path fill="#4a6360" d="M 165.574219 144.296875 C 165.574219 144.296875 168.375 153.800781 180.4375 160.339844 C 180.4375 160.339844 187.351562 166.839844 187.351562 166.839844 C 187.351562 166.839844 190.988281 168.808594 188.855469 165.578125 C 188.855469 165.578125 188.5625 158.269531 185.558594 155.804688 C 185.558594 155.804688 181.390625 151.785156 174.351562 150.738281 C 174.351562 150.738281 168.304688 147.738281 165.574219 144.296875 Z M 165.574219 144.296875 " fill-opacity="1" fill-rule="nonzero"/><g clip-path="url(#56584405cf)"><path fill="#81918f" d="M 169.8125 5.011719 C 169.8125 5.011719 160.878906 21.816406 160.878906 21.816406 C 160.878906 21.816406 155.203125 36.058594 155.203125 36.058594 C 155.203125 36.058594 146.292969 45.339844 146.292969 45.339844 C 146.292969 45.339844 143.128906 50.441406 143.128906 50.441406 C 143.128906 50.441406 139.929688 57.375 139.929688 57.375 C 139.929688 57.375 137.757812 61.929688 137.757812 61.929688 C 137.757812 61.929688 141.832031 56.589844 141.832031 56.589844 C 141.832031 56.589844 144.6875 51.402344 144.6875 51.402344 C 144.6875 51.402344 148.796875 44.230469 148.796875 44.230469 C 148.796875 44.230469 153.542969 40.597656 153.542969 40.597656 C 153.542969 40.597656 147.332031 67.570312 147.332031 67.570312 C 147.332031 67.570312 145.660156 77.292969 145.660156 77.292969 C 145.660156 77.292969 139.152344 90.957031 139.152344 90.957031 C 139.152344 90.957031 137.945312 96.796875 137.945312 96.796875 C 137.945312 96.796875 137.160156 102.929688 137.160156 102.929688 C 137.160156 102.929688 136.605469 107.117188 136.605469 107.117188 C 136.605469 107.117188 131.558594 116.355469 131.558594 116.355469 C 131.558594 116.355469 130.605469 120.761719 130.605469 120.761719 C 130.605469 120.761719 137.078125 108.929688 137.078125 108.929688 C 137.078125 108.929688 138.632812 104.195312 138.632812 104.195312 C 138.632812 104.195312 139.058594 99.296875 139.058594 99.296875 C 139.058594 99.296875 139.414062 95.214844 139.414062 95.214844 C 139.414062 95.214844 141.507812 88.632812 141.507812 88.632812 C 141.507812 88.632812 146.152344 79.613281 146.152344 79.613281 C 146.152344 79.613281 145.449219 90.621094 145.449219 90.621094 C 145.449219 90.621094 147.152344 100.824219 147.152344 100.824219 C 147.152344 100.824219 148.011719 115.636719 148.011719 115.636719 C 148.011719 115.636719 147.925781 137.703125 147.925781 137.703125 C 147.925781 137.703125 149.871094 119.023438 149.871094 119.023438 C 149.871094 119.023438 160.507812 142.214844 160.507812 142.214844 C 160.507812 142.214844 165.695312 153.101562 165.695312 153.101562 C 165.695312 153.101562 169.027344 157.757812 169.027344 157.757812 C 169.027344 157.757812 172.765625 159.855469 172.765625 159.855469 C 172.765625 159.855469 166.746094 151.234375 166.746094 151.234375 C 166.746094 151.234375 163.085938 143.132812 163.085938 143.132812 C 163.085938 143.132812 168.734375 147.296875 168.734375 147.296875 C 168.734375 147.296875 162.191406 141.03125 162.191406 141.03125 C 162.191406 141.03125 151.941406 119.964844 151.941406 119.964844 C 151.941406 119.964844 149.308594 109.488281 149.308594 109.488281 C 149.308594 109.488281 148.804688 101.476562 148.804688 101.476562 C 148.804688 101.476562 152.113281 105.621094 152.113281 105.621094 C 152.113281 105.621094 147.324219 94.515625 147.324219 94.515625 C 147.324219 94.515625 147.304688 83.128906 147.304688 83.128906 C 147.304688 83.128906 151.367188 61.214844 151.367188 61.214844 C 151.367188 61.214844 154.0625 68.03125 154.0625 68.03125 C 154.0625 68.03125 156.1875 78.523438 156.1875 78.523438 C 156.1875 78.523438 168.394531 97.488281 168.394531 97.488281 C 168.394531 97.488281 157.671875 77.453125 157.671875 77.453125 C 157.671875 77.453125 155.859375 67.046875 155.859375 67.046875 C 155.859375 67.046875 152.742188 59.945312 152.742188 59.945312 C 152.742188 59.945312 152.476562 52.835938 152.476562 52.835938 C 152.476562 52.835938 157.726562 35.457031 157.726562 35.457031 C 157.726562 35.457031 163.089844 21.125 163.089844 21.125 C 163.089844 21.125 166.015625 34.027344 166.015625 34.027344 C 166.015625 34.027344 169.242188 44.179688 169.242188 44.179688 C 169.242188 44.179688 166.753906 32.070312 166.753906 32.070312 C 166.753906 32.070312 163.867188 20.179688 163.867188 20.179688 C 163.867188 20.179688 171.714844 4.230469 171.714844 4.230469 C 171.714844 4.230469 169.8125 5.011719 169.8125 5.011719 Z M 169.8125 5.011719 " fill-opacity="1" fill-rule="nonzero"/></g><path fill="#81918f" d="M 177.289062 28.117188 C 177.289062 28.117188 165.847656 21.429688 160.734375 23.449219 C 160.734375 23.449219 170.960938 19.40625 177.289062 28.117188 Z M 177.289062 28.117188 " fill-opacity="1" fill-rule="nonzero"/><path fill="#bcc497" d="M 196.902344 60.746094 C 197.09375 61.441406 197.273438 62.140625 197.414062 62.867188 C 197.414062 62.867188 210.570312 39.972656 190.285156 25.980469 C 190.285156 25.980469 175.804688 18.132812 173.71875 26.105469 C 196.070312 33.535156 197.355469 52.894531 196.902344 60.746094 Z M 196.902344 60.746094 " fill-opacity="1" fill-rule="nonzero"/><path fill="#d8d5b3" d="M 196.898438 60.746094 C 197.355469 52.894531 196.070312 33.535156 173.714844 26.105469 C 173.480469 27.011719 173.394531 28.113281 173.515625 29.460938 C 174.171875 36.664062 192.398438 44.71875 196.898438 60.746094 Z M 196.898438 60.746094 " fill-opacity="1" fill-rule="nonzero"/><path fill="#c7c38f" d="M 166.433594 29.28125 C 166.390625 29.25 166.347656 29.21875 166.300781 29.191406 C 166.300781 29.191406 151.746094 67.355469 193.523438 82.566406 C 193.523438 82.566406 193.203125 82.210938 192.707031 81.574219 C 182.238281 71.855469 166.007812 52.925781 166.433594 29.28125 Z M 166.433594 29.28125 " fill-opacity="1" fill-rule="nonzero"/><path fill="#cfd6bb" d="M 166.433594 29.28125 C 166.003906 52.925781 182.238281 71.855469 192.707031 81.574219 C 190.546875 78.796875 185.046875 70.613281 188.140625 62.59375 C 188.140625 62.59375 188.777344 43.882812 166.433594 29.28125 Z M 166.433594 29.28125 " fill-opacity="1" fill-rule="nonzero"/><path fill="#cfd6bb" d="M 113.8125 76.726562 C 113.8125 76.726562 111.148438 96.324219 111.148438 96.324219 C 117.898438 91.226562 124.808594 84.460938 126.035156 77.464844 C 126.035156 77.464844 125.949219 69.742188 132.328125 66.25 C 132.328125 66.25 143.109375 57.78125 145.40625 47.984375 C 140.355469 53.597656 125.667969 58.457031 125.667969 58.457031 C 115.824219 61.132812 113.8125 76.726562 113.8125 76.726562 Z M 113.8125 76.726562 " fill-opacity="1" fill-rule="nonzero"/><path fill="#79a28f" d="M 164.886719 88.445312 C 160.21875 79.496094 157.898438 73.8125 156.75 70.285156 C 156.089844 70.222656 155.398438 70.199219 154.679688 70.21875 C 154.679688 70.21875 154.554688 70.425781 154.554688 70.425781 C 154.554688 70.425781 149.632812 89.355469 159.089844 95.453125 C 159.089844 95.453125 166.671875 97.8125 168.042969 103.070312 C 168.042969 103.070312 166.675781 108.0625 172.757812 111.832031 C 172.757812 111.832031 180.710938 121.019531 180.710938 121.019531 C 180.710938 121.019531 181.382812 121.171875 181.914062 120.851562 C 176.503906 106.722656 164.886719 88.445312 164.886719 88.445312 Z M 164.886719 88.445312 " fill-opacity="1" fill-rule="nonzero"/><path fill="#cfd6bb" d="M 156.75 70.285156 C 157.902344 73.8125 160.21875 79.496094 164.886719 88.445312 C 164.886719 88.445312 176.503906 106.726562 181.914062 120.851562 C 182.496094 120.5 182.902344 119.574219 182.027344 117.207031 C 182.027344 117.207031 183.347656 102.820312 178.214844 96.152344 C 178.214844 96.152344 170.628906 89.269531 170.890625 82.652344 C 170.890625 82.652344 167.59375 71.289062 156.75 70.285156 Z M 156.75 70.285156 " fill-opacity="1" fill-rule="nonzero"/><path fill="#4a6360" d="M 164.046875 169.207031 C 166.367188 178.242188 164.210938 186.5625 160.992188 193.300781 C 161.054688 193.335938 161.125 193.363281 161.203125 193.382812 C 161.203125 193.382812 163.035156 193.414062 164.191406 188.898438 C 164.191406 188.898438 170.777344 180.109375 169.527344 169.785156 C 169.527344 169.785156 167.113281 163.726562 167.761719 160.652344 C 167.761719 160.652344 168.265625 156.746094 166.488281 152.953125 C 164.757812 162.164062 164.046875 169.207031 164.046875 169.207031 Z M 164.046875 169.207031 " fill-opacity="1" fill-rule="nonzero"/><path fill="#81948b" d="M 160.183594 161.554688 C 160.183594 161.554688 154.625 161.753906 156.769531 168.742188 C 156.769531 168.742188 155.3125 175.984375 160.015625 183.398438 C 160.015625 183.398438 162.84375 186.917969 160.824219 190.09375 C 160.824219 190.09375 159.980469 192.730469 160.992188 193.300781 C 164.210938 186.5625 166.367188 178.242188 164.046875 169.207031 C 164.046875 169.207031 164.757812 162.164062 166.488281 152.953125 C 166.011719 151.933594 165.375 150.921875 164.511719 149.996094 C 164.511719 149.996094 165.65625 157.648438 160.183594 161.554688 Z M 160.183594 161.554688 " fill-opacity="1" fill-rule="nonzero"/><path fill="#4a6360" d="M 178.488281 169.074219 C 183.984375 176.519531 184.894531 186.007812 184.585938 193.101562 C 184.839844 193.136719 185.144531 192.898438 185.46875 192.015625 C 185.46875 192.015625 188.304688 183.472656 184.988281 176.476562 C 184.988281 176.476562 183.660156 159.789062 169.78125 157.09375 C 175.117188 163.109375 178.488281 169.074219 178.488281 169.074219 Z M 178.488281 169.074219 " fill-opacity="1" fill-rule="nonzero"/><path fill="#81948b" d="M 180.242188 183.878906 C 180.242188 183.878906 184.8125 186.878906 184.285156 192.253906 C 184.285156 192.253906 184.554688 192.984375 184.953125 193.042969 C 185.261719 185.949219 184.351562 176.460938 178.855469 169.011719 C 178.855469 169.011719 175.484375 163.050781 170.148438 157.035156 C 169.972656 157 169.800781 156.957031 169.617188 156.925781 C 169.617188 156.925781 173.433594 168.242188 173.433594 168.242188 C 173.433594 168.242188 175.328125 180.351562 180.242188 183.878906 Z M 180.242188 183.878906 " fill-opacity="1" fill-rule="nonzero"/><g clip-path="url(#f8287236fb)"><path fill="#534351" d="M 144.875 3.421875 C 144.875 3.421875 149.183594 18.203125 135.191406 39.484375 C 135.191406 39.484375 144.039062 29.777344 144.523438 21.839844 C 144.523438 21.839844 142.089844 52.519531 142.089844 52.519531 C 142.089844 52.519531 144.910156 30.734375 144.910156 30.734375 C 144.910156 30.734375 144.875 3.421875 144.875 3.421875 Z M 144.875 3.421875 " fill-opacity="1" fill-rule="nonzero"/></g><path fill="#81948b" d="M 129.015625 44.246094 C 121.628906 49.058594 118.128906 55.171875 116.535156 60.640625 C 116.429688 61.554688 116.40625 62.082031 116.40625 62.082031 C 120.617188 54.871094 126.640625 52.910156 126.640625 52.910156 C 142.71875 43.976562 144.273438 21.625 144.273438 21.625 C 144.015625 21.996094 143.667969 22.433594 143.257812 22.914062 C 140.457031 34.796875 129.015625 44.246094 129.015625 44.246094 Z M 129.015625 44.246094 " fill-opacity="1" fill-rule="nonzero"/><path fill="#4a6360" d="M 116.535156 60.640625 C 118.128906 55.171875 121.628906 49.054688 129.015625 44.246094 C 129.015625 44.246094 140.457031 34.796875 143.257812 22.914062 C 139.042969 27.855469 127.621094 37.902344 127.621094 37.902344 C 119 46.035156 116.992188 56.800781 116.535156 60.640625 Z M 116.535156 60.640625 " fill-opacity="1" fill-rule="nonzero"/><path fill="#81948b" d="M 125.351562 76.203125 C 125.34375 76.28125 125.339844 76.328125 125.339844 76.328125 C 132.199219 71.746094 142.960938 58.703125 142.960938 58.703125 C 150.5625 50.179688 144.183594 33.179688 144.183594 33.179688 C 144.183594 33.179688 144.113281 33.300781 144.113281 33.300781 C 140.917969 58.085938 132.339844 70.269531 125.351562 76.203125 Z M 125.351562 76.203125 " fill-opacity="1" fill-rule="nonzero"/><path fill="#4a6360" d="M 144.113281 33.300781 C 144.113281 33.300781 132.660156 52.570312 132.660156 52.570312 C 126.675781 62.121094 125.464844 74.839844 125.351562 76.203125 C 132.339844 70.269531 140.917969 58.085938 144.113281 33.300781 Z M 144.113281 33.300781 " fill-opacity="1" fill-rule="nonzero"/><path fill="#4a6360" d="M 144.816406 19.15625 C 144.5625 18.933594 144.417969 18.8125 144.417969 18.8125 C 143.71875 37.773438 150.421875 45.144531 150.421875 45.144531 C 153.898438 48.550781 155.652344 51.910156 156.351562 53.484375 C 156.183594 48.714844 154.210938 38.660156 144.816406 19.15625 Z M 144.816406 19.15625 " fill-opacity="1" fill-rule="nonzero"/><path fill="#81948b" d="M 144.816406 19.15625 C 154.210938 38.660156 156.183594 48.714844 156.351562 53.484375 C 156.613281 54.070312 156.730469 54.414062 156.730469 54.414062 C 157.546875 50.746094 157.363281 40.574219 157.363281 40.574219 C 158.699219 31.832031 147.125 21.183594 144.816406 19.15625 Z M 144.816406 19.15625 " fill-opacity="1" fill-rule="nonzero"/></svg>